<?xml version="1.0" encoding="utf-8"?>
<!-- Generator: Adobe Illustrator 21.1.0, SVG Export Plug-In . SVG Version: 6.00 Build 0)  -->
<svg version="1.1" id="Layer_1" xmlns="http://www.w3.org/2000/svg" xmlns:xlink="http://www.w3.org/1999/xlink" x="0px" y="0px"
	 viewBox="0 0 3000 590" style="enable-background:new 0 0 3000 590;" xml:space="preserve">
<style type="text/css">
	.st0{opacity:0.14;fill:#A5D3EC;}
	.st1{opacity:2.000000e-02;fill:#F78D1E;}
	.st2{opacity:6.000000e-02;fill:#F78D1E;}
	.st3{opacity:0.1;fill:#F78D1E;}
</style>
<polygon class="st0" points="-68.2,561.8 59.6,394.4 156.8,562.8 237.3,430 345.7,566.9 784.6,572 812.3,554.7 845.7,569.9 
	870.7,543.5 887.3,551.6 915.1,528.2 1006.8,571 1406.8,560.8 1681.8,573 1729,541.4 1790.1,568.9 2501.2,561.8 2582.9,521.8 
	2676.2,563.8 2740.1,454 2815.1,562.8 2920.7,412 3034.6,560.8 3023.4,600.5 -34.9,604.5 "/>
<ellipse transform="matrix(0.3407 -0.9402 0.9402 0.3407 718.9638 1861.1632)" class="st1" cx="1686.5" cy="418" rx="235.8" ry="246.2"/>
<path class="st2" d="M327.2,259.6c48.6-8.6,85.5-43.1,96-84.6c-13.4,17.6-34,30.7-58.7,35c-48.7,8.6-94.5-20.2-102.3-64.3
	c-7.8-44.1,25.3-86.9,74-95.5c1-0.2,2-0.3,3.1-0.5c-15.6-3.4-32.4-3.9-49.4-0.8c-64.2,11.3-107.9,67.7-97.6,125.9
	C202.7,232.9,263,270.9,327.2,259.6z"/>
<ellipse class="st2" cx="2723.2" cy="260.9" rx="58.8" ry="53.3"/>
<path class="st3" d="M2897,445.8l23.6-33.8l11.7,15.3c1.9-3.8,2.9-8.1,2.9-12.5c0-17.2-15.4-31.1-34.3-31.1s-34.3,13.9-34.3,31.1
	C2866.6,430.8,2879.9,444,2897,445.8z"/>
</svg>
